<?xml version="1.0" encoding="UTF-8"?><svg id="Layer_1" xmlns="http://www.w3.org/2000/svg" viewBox="0 0 300 123.76"><defs><style>.cls-1{fill:#bfe5e9;}</style></defs><path class="cls-1" d="M78.27,94.24c-3.02,3-6.06,5.99-9.07,9.01-1.44,1.45-3.04,2.67-4.97,3.35-5.29,1.88-10.19,1.11-14.2-2.83-9.75-9.57-19.39-19.26-29.01-28.97-5.19-5.24-5.17-13.56,.03-18.81,9.58-9.66,19.21-19.28,28.87-28.87,5.19-5.15,13.52-5.16,18.75-.02,6.52,6.41,12.99,12.89,19.41,19.4,5.08,5.15,5.2,13.33,.16,18.55-5.94,6.15-12.06,12.13-18.1,18.18-.22,.22-.42,.46-.64,.69-.6,.35-.58,.65-.08,1.15,2.81,2.76,5.59,5.56,8.37,8.36,.22,.22,.62,.37,.47,.81m.01-38.29c-.07-.35-.33-.5-.53-.69-5.94-5.95-11.9-11.89-17.83-17.86-.45-.45-.69-.53-1.19-.03-9.15,9.18-18.31,18.34-27.49,27.49-.47,.46-.43,.69,.01,1.13,9.18,9.15,18.34,18.31,27.49,27.49,.45,.45,.68,.47,1.13,0,2.77-2.82,5.56-5.61,8.38-8.38,.46-.45,.52-.71,.02-1.19-2.8-2.75-5.54-5.55-8.34-8.29-.52-.51-.57-.76-.02-1.31,5.95-5.9,11.88-11.84,17.8-17.76,.2-.2,.39-.41,.57-.6"/><path class="cls-1" d="M109.65,65.53c0-7.98,.01-15.97-.02-23.95,0-.77,.21-.92,.94-.91,6.59,.03,13.18,0,19.77,.02,4.15,0,7.97,1.07,11.24,3.73,3.96,3.22,5.89,7.5,6.2,12.5,.35,5.59-1.31,10.49-5.55,14.32-3.14,2.84-6.94,4.14-11.13,4.23-4.03,.08-8.07,.05-12.1,.01-.79,0-1.05,.13-1.04,.99,.05,4.37,.01,8.75,.04,13.12,0,.64-.11,.88-.82,.86-2.22-.05-4.43-.05-6.65,0-.7,.01-.9-.17-.89-.88,.03-8.01,.02-16.02,.02-24.03m8.18-7.46c0,3.15,.02,6.3-.01,9.45,0,.6,.17,.76,.76,.75,3.83-.03,7.66,0,11.5-.02,.97,0,1.92-.11,2.86-.37,4.14-1.19,6.8-4.92,6.91-9.65,.14-5.55-3.53-10.54-10.14-10.39-3.69,.09-7.38,.04-11.07,0-.7,0-.83,.21-.82,.85,.03,3.12,.01,6.25,.01,9.37"/><path class="cls-1" d="M197.44,83.92c-.54,.68-.92,1.43-1.44,2.09-2.74,3.46-6.41,5-10.74,4.88-7.76-.23-13.09-5.02-14.61-12.91-.78-4.04-.75-8.03,.77-11.9,2.19-5.6,6.47-8.79,12.21-10.02,6.78-1.45,13.31-.29,19.62,2.38,.49,.21,.47,.54,.47,.94,0,7.13,0,14.26,0,21.4,0,.57-.01,1.14,.04,1.7,.17,1.75,.95,2.53,2.71,2.48,.86-.02,.95,.29,.92,.99-.05,1.22-.01,2.44-.01,3.67,0,.31,.05,.62-.42,.68-1.86,.27-3.73,.43-5.59-.01-2.43-.58-3.81-2.33-3.94-4.91-.02-.48,0-.96,0-1.45m-1.21-14.98c0-1.81-.03-3.46,.01-5.1,.01-.55-.16-.8-.67-.98-2.8-1.02-5.68-1.4-8.62-.99-4.2,.58-7.12,2.82-8.4,6.93-.92,2.95-.86,5.93,.08,8.88,1.87,5.87,7.15,7.12,11.26,5.96,3.33-.94,4.95-3.49,5.81-6.64,.74-2.7,.48-5.47,.52-8.06"/><path class="cls-1" d="M251.42,83.72h4.84c3.95,0,7.9,.01,11.85-.01,.56,0,.8,.09,.78,.73-.05,1.79-.03,3.58,0,5.37,0,.47-.1,.63-.6,.63-9.09-.01-18.18-.01-27.28-.01-.6,0-.89-.99-.52-1.77,.08-.18,.21-.33,.32-.5,5.36-8.42,10.7-16.86,16.5-24.99,.12-.17,.24-.36,.43-.65h-.96c-4.86,0-9.72-.01-14.57,.02-.64,0-.81-.15-.79-.79,.05-1.62,.04-3.24,0-4.86-.01-.54,.12-.71,.69-.71,8.7,.02,17.39,.02,26.08,0,.72,0,.78,.28,.73,.84-.03,.34-.24,.57-.41,.83-5.47,8.49-10.87,17.02-16.69,25.28-.11,.16-.21,.32-.41,.62"/><path class="cls-1" d="M216.02,70.92c0-2.53-.02-5.06,.01-7.59,0-.63-.1-.87-.81-.85-1.82,.06-3.64,0-5.46,.03-.52,0-.75-.07-.74-.68,.05-1.65,.04-3.3,0-4.94-.02-.6,.21-.69,.74-.69,1.79,.03,3.58-.04,5.37,.04,.8,.03,.91-.24,.9-.94-.05-2.22,.01-4.43-.04-6.65-.02-.7,.21-.83,.85-.82,1.99,.04,3.98,.05,5.97,0,.74-.02,.87,.22,.86,.9-.05,2.19,.03,4.38-.04,6.56-.02,.83,.26,.95,.99,.94,3.35-.04,6.71,0,10.06-.04,.7,0,.84,.21,.82,.85-.04,1.59-.04,3.18,0,4.77,.02,.58-.18,.69-.71,.69-3.47-.02-6.93,0-10.4-.03-.59,0-.75,.14-.75,.74,.03,4.72,.02,9.44,.01,14.15,0,1.55,.17,3.06,.76,4.5,.98,2.36,3.07,3.55,5.91,3.4,1.77-.09,3.49-.47,5.14-1.08,.53-.2,.71-.08,.78,.47,.17,1.55,.39,3.1,.59,4.64,.04,.29,.1,.53-.31,.64-3.91,1.11-7.86,1.88-11.92,.92-4.57-1.08-7.05-4.16-8.08-8.59-.57-2.46-.53-4.96-.52-7.46,0-1.31,0-2.61,0-3.92"/><path class="cls-1" d="M152.91,60.8c0-6.45,.01-12.9-.02-19.35,0-.64,.16-.8,.79-.78,2.05,.04,4.09,.04,6.14,0,.64-.01,.79,.15,.79,.79-.02,12.02-.02,24.04-.02,36.06,0,1.39,0,2.78,.34,4.15,.51,2.11,1.74,3.11,3.93,3.19,.85,.03,1.71,.04,2.55-.15,.44-.1,.59,.04,.61,.5,.06,1.65,.15,3.29,.25,4.94,.02,.33-.04,.49-.42,.55-2.65,.4-5.31,.65-7.96,.08-3.77-.82-5.65-3.41-6.44-6.99-.45-2.04-.53-4.11-.53-6.18,.01-5.6,0-11.2,0-16.79"/><path class="cls-1" d="M282.07,73.36c0,5.4-.01,10.8,.02,16.2,0,.71-.17,.91-.89,.89-2.07-.05-4.15-.04-6.22,0-.53,0-.66-.14-.66-.66,.01-10.97,.01-21.94,0-32.91,0-.52,.11-.67,.65-.67,2.1,.04,4.21,.05,6.31,0,.74-.02,.8,.27,.8,.88-.02,5.43-.01,10.85-.01,16.28"/><path class="cls-1" d="M278.27,49.76c-2.78-.01-4.72-1.91-4.73-4.6,0-2.69,1.98-4.59,4.76-4.55,2.73,.04,4.59,1.92,4.56,4.64-.02,2.66-1.92,4.53-4.59,4.51"/></svg>